<svg
  class="trash-can"
  width="33"
  height="32"
  viewBox="0 0 33 32"
  fill="none"
  xmlns="http://www.w3.org/2000/svg"
>
  <path
    d="M12.067 12H14.0782V24H12.067V12ZM18.1006 12H20.1117V24H18.1006V12Z"
    fill="black"
  />
  <path
    d="M4.02235 6V8H6.03352V28C6.03352 28.5304 6.24541 29.0391 6.62258 29.4142C6.99975 29.7893 7.5113 30 8.04469 30H24.1341C24.6675 30 25.179 29.7893 25.5562 29.4142C25.9334 29.0391 26.1453 28.5304 26.1453 28V8H28.1564V6H4.02235ZM8.04469 28V8H24.1341V28H8.04469ZM12.067 2H20.1117V4H12.067V2Z"
    fill="black"
  />
</svg>
